Coordinates
version=1
nRows=15
nColumns=19
inDegrees=yes

Units are S.I. units (second, meters, Newtons, ...)
If the header above contains a line with 'inDegrees', this indicates whether rotational values are in degrees (yes) or radians (no).

endheader
time	pelvis_tilt	pelvis_list	pelvis_rotation	pelvis_tx	pelvis_ty	pelvis_tz	hip_flexion_r	hip_adduction_r	hip_rotation_r	knee_angle_r	knee_angle_r_beta	ankle_angle_r	hip_flexion_l	hip_adduction_l	hip_rotation_l	knee_angle_l	knee_angle_l_beta	ankle_angle_l
     16.77333333	     -2.70303707	      7.82617537	     -0.29083155	      2.41624294	      1.04936889	      0.97646552	    -11.57643496	    -11.59793850	    -11.08518273	     51.11480023	      0.89212156	    -17.94605726	     20.58202520	     10.44243360	     -8.17463566	     12.58228562	      0.21960231	      6.74775941
     16.78000000	     -2.26034300	      8.30898669	     -0.02369069	      2.41498321	      1.04456812	      0.97592837	    -10.90305067	    -11.98783992	     -9.84652892	     54.54760841	      0.95203537	    -17.31760090	     20.79744942	     10.87813778	     -8.66220669	     15.25443258	      0.26624007	      6.32057946
     16.78666667	     -1.91566588	      8.72776226	      0.24404102	      2.41349574	      1.03940866	      0.97551438	    -10.03131964	    -12.22120494	     -8.52995232	     57.99802559	      1.01225651	    -16.71907021	     21.20194895	     11.20154258	     -9.07548417	     18.17814306	      0.31726845	      6.10119250
     16.79333333	     -1.70650659	      9.05254772	      0.52504309	      2.41174798	      1.03389619	      0.97517284	     -8.92328533	    -12.32310176	     -7.24917852	     61.46635751	      1.07279032	    -16.10211269	     21.80838889	     11.39883677	     -9.41053960	     21.27093263	      0.37124781	      6.12340063
     16.80000000	     -1.58063503	      9.31243581	      0.82573621	      2.40983434	      1.02813960	      0.97493702	     -7.66621320	    -12.31105854	     -6.01977349	     64.89247297	      1.13258731	    -15.50708165	     22.53440618	     11.51583966	     -9.63963296	     24.48093136	      0.42727286	      6.48186727
     16.80666667	     -1.11177948	      9.70019980	      1.17595631	      2.40791267	      1.02265394	      0.97471242	     -6.83638711	    -12.47609088	     -5.13141618	     68.16339067	      1.18967560	    -14.85079244	     22.82953500	     11.79471042	     -9.77407804	     27.62713760	      0.48218451	      7.19689696
     16.81333333	     -1.58315309	      9.65528856	      1.47584805	      2.40552218	      1.01628270	      0.97469969	     -4.70849023	    -12.09846577	     -3.86069046	     71.54938739	      1.24877239	    -14.30541454	     24.16731902	     11.60060851	     -9.75128898	     30.84778644	      0.53839544	      8.22367848
     16.82000000	     -1.75266075	      9.79128212	      1.79609882	      2.40320330	      1.01027755	      0.97469194	     -2.96213763	    -12.00557789	     -2.93060394	     74.75398519	      1.30470317	    -13.68328617	     25.04125448	     11.63351000	     -9.70454962	     33.84354845	      0.59068135	      9.54224807
     16.82666667	     -1.93220079	      9.87966678	      2.12485054	      2.40071043	      1.00445356	      0.97474242	     -1.14372827	    -11.89502126	     -2.11206513	     77.84264667	      1.35861048	    -13.00959445	     25.81322970	     11.65675007	     -9.54685253	     36.65148196	      0.63968904	     11.08424195
     16.83333333	     -2.11571501	      9.93120868	      2.42034184	      2.39817596	      0.99890912	      0.97491723	      0.73461959	    -11.78341488	     -1.36629600	     80.77832033	      1.40984765	    -12.34579654	     26.43955593	     11.66882379	     -9.32554239	     39.21118830	      0.68436434	     12.80814925
     16.84000000	     -2.31792694	      9.96936194	      2.71240265	      2.39560413	      0.99369604	      0.97509275	      2.67088890	    -11.71885202	     -0.72272283	     83.54057927	      1.45805817	    -11.63588073	     26.91677476	     11.69993556	     -9.05860601	     41.48812460	      0.72410437	     14.60626510
     16.84666667	     -2.49663931	      9.98117122	      2.95704415	      2.39301191	      0.98894820	      0.97536011	      4.63974816	    -11.66450403	     -0.12218278	     86.11113950	      1.50292291	    -10.93054470	     27.19127284	     11.72280317	     -8.75357216	     43.45759085	      0.75847805	     16.40684812
     16.85333333	     -2.10084656	     10.12028287	      3.21162791	      2.39063691	      0.98541054	      0.97557169	      5.90033485	    -11.83052562	      0.21083328	     88.34473791	      1.54190655	    -10.11678570	     26.58505878	     11.92054113	     -8.37782757	     44.99251382	      0.78526750	     18.20490967
     16.86000000	     -2.75446887	      9.97092064	      3.32013091	      2.38798078	      0.98106519	      0.97599395	      8.57720042	    -11.63827671	      0.94158047	     90.57481000	      1.58082865	     -9.50906924	     27.09311932	     11.76726447	     -8.11344480	     46.46467327	      0.81096153	     19.72761614
     16.86666667	     -2.31594799	     10.01935291	      3.48689547	      2.38578825	      0.97872886	      0.97619770	      9.85431189	    -11.79374502	      1.18940774	     92.30452977	      1.61101796	     -8.85025504	     26.09783989	     11.89835467	     -7.66099827	     47.40611503	      0.82739279	     21.21052767
